<?xml version="1.0" standalone="no"?><svg xmlns="http://www.w3.org/2000/svg" viewBox="0 0 1440 320"><path fill="#111" fill-opacity="111" d="M0,256L6.2,261.3C12.3,267,25,277,37,261.3C49.2,245,62,203,74,197.3C86.2,192,98,224,111,229.3C123.1,235,135,213,148,218.7C160,224,172,256,185,272C196.9,288,209,288,222,266.7C233.8,245,246,203,258,202.7C270.8,203,283,245,295,229.3C307.7,213,320,139,332,112C344.6,85,357,107,369,149.3C381.5,192,394,256,406,272C418.5,288,431,256,443,213.3C455.4,171,468,117,480,133.3C492.3,149,505,235,517,234.7C529.2,235,542,149,554,133.3C566.2,117,578,171,591,176C603.1,181,615,139,628,144C640,149,652,203,665,202.7C676.9,203,689,149,702,112C713.8,75,726,53,738,80C750.8,107,763,181,775,186.7C787.7,192,800,128,812,101.3C824.6,75,837,85,849,112C861.5,139,874,181,886,170.7C898.5,160,911,96,923,101.3C935.4,107,948,181,960,202.7C972.3,224,985,192,997,202.7C1009.2,213,1022,267,1034,272C1046.2,277,1058,235,1071,229.3C1083.1,224,1095,256,1108,256C1120,256,1132,224,1145,213.3C1156.9,203,1169,213,1182,186.7C1193.8,160,1206,96,1218,80C1230.8,64,1243,96,1255,133.3C1267.7,171,1280,213,1292,197.3C1304.6,181,1317,107,1329,74.7C1341.5,43,1354,53,1366,53.3C1378.5,53,1391,43,1403,48C1415.4,53,1428,75,1434,85.3L1440,96L1440,0L1433.8,0C1427.7,0,1415,0,1403,0C1390.8,0,1378,0,1366,0C1353.8,0,1342,0,1329,0C1316.9,0,1305,0,1292,0C1280,0,1268,0,1255,0C1243.1,0,1231,0,1218,0C1206.2,0,1194,0,1182,0C1169.2,0,1157,0,1145,0C1132.3,0,1120,0,1108,0C1095.4,0,1083,0,1071,0C1058.5,0,1046,0,1034,0C1021.5,0,1009,0,997,0C984.6,0,972,0,960,0C947.7,0,935,0,923,0C910.8,0,898,0,886,0C873.8,0,862,0,849,0C836.9,0,825,0,812,0C800,0,788,0,775,0C763.1,0,751,0,738,0C726.2,0,714,0,702,0C689.2,0,677,0,665,0C652.3,0,640,0,628,0C615.4,0,603,0,591,0C578.5,0,566,0,554,0C541.5,0,529,0,517,0C504.6,0,492,0,480,0C467.7,0,455,0,443,0C430.8,0,418,0,406,0C393.8,0,382,0,369,0C356.9,0,345,0,332,0C320,0,308,0,295,0C283.1,0,271,0,258,0C246.2,0,234,0,222,0C209.2,0,197,0,185,0C172.3,0,160,0,148,0C135.4,0,123,0,111,0C98.5,0,86,0,74,0C61.5,0,49,0,37,0C24.6,0,12,0,6,0L0,0Z"></path></svg>